<svg xmlns="http://www.w3.org/2000/svg" viewBox="0 0 48 30" fill="none">
  <rect width="48" height="30" rx="4" fill="#006FCF"/>
  <path d="M10.5 11.5h2.8l-1.4-3.3-1.4 3.3zm14.7 0v-3.5l2.5 3.5h1.9V7h-1.5v3.3L25.7 7h-2.1v4.5h1.6zm-6.3-3.2h2.4v-1.3h-3.9v4.5h3.9v-1.3h-2.4v-.6h2.2v-1.1h-2.2v-.2zm-7.8-1.3L9 11.5H7.3L5.2 7h1.8l1.2 2.8L9.4 7h1.7zm26 0l-2.1 4.5h-1.7L31.2 7h1.8l1.2 2.8L35.4 7h1.7zM43 11.5h1.7l-2.8-4.5h-1.9l-2.8 4.5h1.7l.5-1h3.1l.5 1zm-2.1-2.3l.8-1.8.8 1.8h-1.6z" fill="white"/>
  <path d="M8.5 19.5h10v-1.3h-8.5v-1.5h8.3v-1.2h-8.3v-1.4h8.5v-1.3h-10v6.7zm12 0h1.5v-5.4h2.9v-1.3h-7.3v1.3h2.9v5.4zm6.5-6.7v3.8c0 .8.2 1.4.5 1.8.4.5 1 .7 1.8.7h1.5c.8 0 1.4-.2 1.8-.7.3-.4.5-1 .5-1.8v-3.8h-1.5v3.7c0 .4-.1.7-.2.9-.2.2-.4.3-.8.3h-1.1c-.4 0-.6-.1-.8-.3-.1-.2-.2-.5-.2-.9v-3.7H27zm9.5 0v6.7h1.5v-2.5h1.7l1.8 2.5h1.8l-2-2.7c.5-.2.9-.4 1.2-.8.3-.4.4-.8.4-1.4 0-.8-.3-1.4-.8-1.8-.5-.4-1.2-.6-2.1-.6h-3.5zm1.5 1.2h1.8c.4 0 .7.1.9.3.2.2.3.4.3.7 0 .3-.1.6-.3.8-.2.2-.5.3-.9.3h-1.8v-2.1z" fill="white"/>
</svg>
