<svg xmlns="http://www.w3.org/2000/svg" viewBox="0 0 48 30" fill="none">
  <rect width="48" height="30" rx="4" fill="#003087"/>
  <path d="M19.5 9.5c.3-1.8-.1-3.1-1.2-4.1C17.2 4.4 15.4 4 13.2 4H7.8c-.4 0-.8.3-.9.7L4 21.3c0 .3.2.6.5.6h3.3l.8-5.3v.2c.1-.4.5-.7.9-.7h1.8c3.6 0 6.5-1.5 7.3-5.7.1-.2.1-.5.1-.7-.1 0-.1 0 0-.2zm-1.3.8c-.8 4.6-4.2 4.6-7.5 4.6h-1.9l1.3-8.4c.1-.3.3-.4.5-.4h.4c1.2 0 2.3 0 2.9.7.4.4.5 1 .3 1.8v.2.5z" fill="white"/>
  <path d="M35.5 9.5c.3-1.8-.1-3.1-1.2-4.1C33.2 4.4 31.4 4 29.2 4h-5.4c-.4 0-.8.3-.9.7L20 21.3c0 .3.2.6.5.6h3.3l.8-5.3v.2c.1-.4.5-.7.9-.7h1.8c3.6 0 6.5-1.5 7.3-5.7.1-.2.1-.5.1-.7-.1 0-.1 0 0-.2zm-1.3.8c-.8 4.6-4.2 4.6-7.5 4.6h-1.9l1.3-8.4c.1-.3.3-.4.5-.4h.4c1.2 0 2.3 0 2.9.7.4.4.5 1 .3 1.8v.2.5z" fill="#0070BA"/>
  <path d="M19.8 10.3c0 .2 0 .3-.1.5-.8 4.2-3.7 5.7-7.3 5.7h-1.8c-.4 0-.8.3-.9.7L8.9 21l-.3 1.8c0 .3.2.5.4.5h3c.4 0 .7-.3.8-.6v-.1l.6-3.7v-.2c.1-.4.4-.6.8-.6h.5c3.2 0 5.7-1.3 6.4-5 .3-1.6.1-2.9-.6-3.8-.2-.3-.5-.5-.8-.7.1.1.1.2.1.3z" fill="#0070BA"/>
  <path d="M18.8 9.9c-.1 0-.2-.1-.3-.1-.1 0-.2-.1-.3-.1-.4-.1-.9-.1-1.4-.1h-4.2c-.1 0-.2 0-.3.1-.2.1-.3.2-.4.4l-1 6.3v.2c.1-.4.5-.7.9-.7h1.8c3.6 0 6.5-1.5 7.3-5.7 0-.2.1-.4.1-.5-.2-.1-.4-.2-.7-.3-.2-.1-.3-.1-.5-.1z" fill="#003087"/>
</svg>
